<?xml version="1.0" encoding="UTF-8"?>
<svg id="Layer_2" data-name="Layer 2" xmlns="http://www.w3.org/2000/svg" viewBox="0 0 143.84 120.65">
  <defs>
    <style>
      .cls-1 {
        fill: #254557;
        fill-rule: evenodd;
      }
    </style>
  </defs>
  <g id="Layer_1-2" data-name="Layer 1">
    <g>
      <path class="cls-1" d="m4.29,16.43h4.85c2.36,0,4.29,1.93,4.29,4.29s-1.93,4.29-4.29,4.29h-4.85c-2.36,0-4.29-1.93-4.29-4.29s1.93-4.29,4.29-4.29m5.97,48.92h7.02c2.36,0,4.29,1.93,4.29,4.29s-1.93,4.29-4.29,4.29h-7.02c-2.36,0-4.29-1.93-4.29-4.29s1.93-4.29,4.29-4.29Zm12.92-16.06h6.04c2.36,0,4.29,1.93,4.29,4.29s-1.93,4.29-4.29,4.29h-6.04c-2.36,0-4.29-1.93-4.29-4.29s1.93-4.29,4.29-4.29Zm-1.48,47.45h4.85c2.36,0,4.29,1.93,4.29,4.29s-1.93,4.29-4.29,4.29h-4.85c-2.36,0-4.29-1.93-4.29-4.29s1.93-4.29,4.29-4.29Zm53.04-6.37v16.67l.86.07c5.33.43,12.57.36,17.64-1.41,9.21-3.23,16.97-9.03,21.28-17.95,3-6.21,3.55-11.16,3.58-17.96,0-2.75-.04-8.75-.06-11.51l-.28-44.47h-43.02v17.1h26.57v9.55c0,5.9.12,11.8.07,17.7l-.11,15.55c-.07,7.91-7.13,15.3-14.83,16.44-2.09.31-4.18.46-6.29.41-1.49-.04-2.98-.18-4.46-.18h-.94Zm69.09-33.98V0H34.36c-2.36,0-4.29,1.93-4.29,4.29s1.93,4.29,4.29,4.29h8.63c2.15.01,3.9,1.77,3.9,3.92s-1.77,3.92-3.92,3.92h-15.42c-2.36,0-4.29,1.93-4.29,4.29s1.93,4.29,4.29,4.29h21.4c2.15.01,3.9,1.77,3.9,3.92s-1.76,3.92-3.92,3.92h-21.39c-2.36,0-4.29,1.93-4.29,4.29s1.93,4.29,4.29,4.29h37.02c2.16,0,3.92,1.77,3.92,3.92s-1.76,3.92-3.92,3.92h-21.97c-2.27.11-4.1,2-4.1,4.29s1.82,4.18,4.1,4.29h0s.19,0,.19,0h31.41c2.16,0,3.93,1.77,3.93,3.92h0c0,2.16-1.77,3.92-3.93,3.92h-41.71c-2.16,0-3.92,1.77-3.92,3.92s1.77,3.92,3.92,3.92h22.58c2.16,0,3.92,1.77,3.92,3.92s-1.76,3.92-3.92,3.92h-27.9c-2.15,0-3.92,1.77-3.92,3.92s1.77,3.92,3.92,3.92h34.78c2.16,0,3.93,1.77,3.93,3.92s-1.77,3.92-3.93,3.92h-22.48c-2.16,0-3.92,1.77-3.92,3.92h0c0,2.16,1.76,3.92,3.92,3.92h7.57c2.16,0,3.92,1.77,3.92,3.92s-1.77,3.92-3.92,3.92h-19.87c-2.16,0-3.92,1.77-3.92,3.92h0c0,2.16,1.77,3.92,3.92,3.92h116.67v-35.26h0v-28.99Z"/>
      <path class="cls-1" d="m27.54,0h15.45v8.58h-15.45c-2.36,0-4.29-1.93-4.29-4.29h0c0-2.36,1.93-4.29,4.29-4.29"/>
      <path class="cls-1" d="m19.98,16.43h23.02v8.58h-23.02c-2.36,0-4.29-1.93-4.29-4.29h0c0-2.36,1.93-4.29,4.29-4.29"/>
    </g>
  </g>
</svg>