<?xml version="1.0" encoding="UTF-8"?>
<svg id="Layer_2" data-name="Layer 2" xmlns="http://www.w3.org/2000/svg" viewBox="0 0 489.6 120.65">
  <defs>
    <style>
      .cls-1 {
        fill: #101720;
      }

      .cls-1, .cls-2 {
        fill-rule: evenodd;
      }

      .cls-2 {
        fill: #254557;
      }
    </style>
  </defs>
  <g id="Layer_1-2" data-name="Layer 1">
    <g>
      <path class="cls-2" d="m4.29,16.43h4.85c2.36,0,4.29,1.93,4.29,4.29s-1.93,4.29-4.29,4.29h-4.85c-2.36,0-4.29-1.93-4.29-4.29s1.93-4.29,4.29-4.29m5.97,48.92h7.02c2.36,0,4.29,1.93,4.29,4.29s-1.93,4.29-4.29,4.29h-7.02c-2.36,0-4.29-1.93-4.29-4.29s1.93-4.29,4.29-4.29Zm12.92-16.06h6.04c2.36,0,4.29,1.93,4.29,4.29s-1.93,4.29-4.29,4.29h-6.04c-2.36,0-4.29-1.93-4.29-4.29s1.93-4.29,4.29-4.29Zm-1.48,47.45h4.85c2.36,0,4.29,1.93,4.29,4.29s-1.93,4.29-4.29,4.29h-4.85c-2.36,0-4.29-1.93-4.29-4.29s1.93-4.29,4.29-4.29Zm53.04-6.37v16.67l.86.07c5.33.43,12.57.36,17.64-1.41,9.21-3.23,16.97-9.03,21.28-17.95,3-6.21,3.55-11.16,3.58-17.96,0-2.75-.04-8.75-.06-11.51l-.28-44.47h-43.02v17.1h26.57v9.55c0,5.9.12,11.8.07,17.7l-.11,15.55c-.07,7.91-7.13,15.3-14.83,16.44-2.09.31-4.18.46-6.29.41-1.49-.04-2.98-.18-4.46-.18h-.94Zm69.09-33.98V0H34.36c-2.36,0-4.29,1.93-4.29,4.29s1.93,4.29,4.29,4.29h8.63c2.15.01,3.9,1.77,3.9,3.92s-1.77,3.92-3.92,3.92h-15.42c-2.36,0-4.29,1.93-4.29,4.29s1.93,4.29,4.29,4.29h21.4c2.15.01,3.9,1.77,3.9,3.92s-1.76,3.92-3.92,3.92h-21.39c-2.36,0-4.29,1.93-4.29,4.29s1.93,4.29,4.29,4.29h37.02c2.16,0,3.92,1.77,3.92,3.92s-1.76,3.92-3.92,3.92h-21.97c-2.27.11-4.1,2-4.1,4.29s1.82,4.18,4.1,4.29h0s.19,0,.19,0h31.41c2.16,0,3.93,1.77,3.93,3.92h0c0,2.16-1.77,3.92-3.93,3.92h-41.71c-2.16,0-3.92,1.77-3.92,3.92s1.77,3.92,3.92,3.92h22.58c2.16,0,3.92,1.77,3.92,3.92s-1.76,3.92-3.92,3.92h-27.9c-2.15,0-3.92,1.77-3.92,3.92s1.77,3.92,3.92,3.92h34.78c2.16,0,3.93,1.77,3.93,3.92s-1.77,3.92-3.93,3.92h-22.48c-2.16,0-3.92,1.77-3.92,3.92h0c0,2.16,1.76,3.92,3.92,3.92h7.57c2.16,0,3.92,1.77,3.92,3.92s-1.77,3.92-3.92,3.92h-19.87c-2.16,0-3.92,1.77-3.92,3.92h0c0,2.16,1.77,3.92,3.92,3.92h116.67v-35.26h0v-28.99Z"/>
      <path class="cls-2" d="m27.54,0h15.45v8.58h-15.45c-2.36,0-4.29-1.93-4.29-4.29h0c0-2.36,1.93-4.29,4.29-4.29"/>
      <path class="cls-2" d="m19.98,16.43h23.02v8.58h-23.02c-2.36,0-4.29-1.93-4.29-4.29h0c0-2.36,1.93-4.29,4.29-4.29"/>
    </g>
    <path class="cls-1" d="m329.76,107.24c1.8,0,3.52-.4,5.08-1.3,1.51-.87,2.69-2.07,3.55-3.59.9-1.58,1.3-3.32,1.3-5.13s-.4-3.55-1.3-5.13c-.86-1.52-2.04-2.72-3.55-3.59-1.56-.9-3.28-1.3-5.08-1.3s-3.54.41-5.12,1.31c-1.52.87-2.72,2.07-3.59,3.59-.9,1.58-1.3,3.31-1.3,5.13s.4,3.55,1.3,5.13c.87,1.53,2.06,2.72,3.59,3.59,1.58.9,3.3,1.3,5.12,1.3m-51.72-8.23v8.23h8.37c1.49,0,3.38-.17,4.66-1.02,1.08-.72,1.46-1.82,1.46-3.08,0-3.5-3.22-4.14-6.12-4.14h-8.37Zm0-11.83v7.88h7.42c1.42,0,3.09-.2,4.29-1.03,1-.7,1.41-1.7,1.41-2.91s-.41-2.21-1.41-2.91c-1.2-.84-2.87-1.03-4.29-1.03h-7.42Zm-29.28,10.03c0-1.82-.4-3.55-1.3-5.13-.86-1.52-2.04-2.72-3.55-3.59-1.57-.91-3.28-1.3-5.08-1.3s-3.54.41-5.12,1.31c-1.52.87-2.72,2.07-3.59,3.59-.9,1.58-1.3,3.31-1.3,5.13s.4,3.55,1.3,5.13c.87,1.52,2.06,2.72,3.59,3.59,1.58.9,3.3,1.3,5.12,1.3s3.51-.4,5.08-1.3c1.51-.87,2.69-2.07,3.55-3.59.9-1.58,1.3-3.32,1.3-5.13Zm-60.51-9.8v11.41h6.08c1.81,0,3.84-.3,5.27-1.5,1.29-1.08,1.76-2.58,1.76-4.23s-.46-3.14-1.76-4.21c-1.44-1.18-3.47-1.48-5.27-1.48h-6.08Zm290.62,24.08c-2.03,0-4.02-.32-5.94-.97-1.64-.55-3.28-1.35-4.55-2.55l-.21-.2,1.76-3.78.4.37c1.08.99,2.41,1.69,3.77,2.19,1.53.56,3.13.85,4.76.85,1.51,0,3.45-.18,4.73-1.07.95-.67,1.47-1.54,1.47-2.71,0-.77-.22-1.44-.77-1.98-.59-.57-1.3-.97-2.07-1.25-1.19-.42-2.46-.74-3.68-1.04-1.64-.4-3.34-.86-4.91-1.49-1.3-.52-2.41-1.32-3.32-2.38-1.06-1.23-1.41-2.8-1.41-4.39,0-1.49.38-2.88,1.19-4.13.87-1.34,2.14-2.28,3.58-2.94,1.81-.83,3.88-1.08,5.85-1.08,1.61,0,3.2.21,4.76.63,1.44.39,2.83.98,4.05,1.84l.26.18-1.56,3.84-.41-.26c-1.08-.7-2.24-1.24-3.48-1.6-1.18-.35-2.39-.55-3.62-.55-1.51,0-3.37.2-4.62,1.12-.94.7-1.46,1.6-1.46,2.78,0,.77.23,1.44.79,1.98.61.58,1.34.99,2.13,1.27,1.17.42,2.43.73,3.64,1.01,1.64.39,3.33.86,4.9,1.49,1.29.52,2.39,1.31,3.3,2.36,1.05,1.21,1.42,2.76,1.42,4.33,0,1.49-.4,2.87-1.21,4.12-.88,1.36-2.18,2.29-3.64,2.94-1.82.81-3.9,1.06-5.88,1.06Zm-38.32,0c-2.62,0-5.13-.57-7.42-1.85-2.2-1.23-3.94-2.93-5.2-5.11-1.3-2.25-1.88-4.72-1.88-7.32s.58-5.07,1.88-7.32c1.26-2.18,3.02-3.89,5.22-5.11,2.3-1.28,4.81-1.85,7.44-1.85,2.02,0,4,.33,5.87,1.1,1.78.73,3.31,1.82,4.57,3.27l.25.28-3.04,3-.28-.3c-1.95-2.09-4.36-3.09-7.22-3.09-1.83,0-3.58.4-5.18,1.31-1.53.87-2.74,2.06-3.61,3.59-.9,1.58-1.3,3.31-1.3,5.13s.4,3.55,1.3,5.13c.87,1.53,2.07,2.72,3.61,3.59,1.6.9,3.34,1.31,5.18,1.31,2.86,0,5.26-1.04,7.22-3.13l.28-.3,3.04,3-.25.28c-1.27,1.45-2.81,2.54-4.59,3.28-1.88.78-3.87,1.12-5.89,1.12Zm-39.18-28.25h4.61v27.94h-4.61v-27.94Zm-32.1,4.17h-9.15v-4.17h22.88v4.17h-9.15v23.77h-4.58v-23.77Zm-39.52,24.08c-2.64,0-5.17-.57-7.48-1.85-2.21-1.23-3.97-2.94-5.24-5.13-1.31-2.25-1.9-4.7-1.9-7.3s.6-5.05,1.9-7.3c1.27-2.19,3.03-3.9,5.24-5.13,2.31-1.28,4.84-1.85,7.48-1.85s5.14.57,7.44,1.85c2.21,1.23,3.96,2.93,5.22,5.11,1.3,2.25,1.88,4.72,1.88,7.32s-.58,5.06-1.88,7.32c-1.27,2.19-3.02,3.89-5.22,5.11-2.3,1.28-4.81,1.85-7.44,1.85Zm-37.01-14.88c1.18.47,2.21,1.2,3.01,2.23,1.03,1.33,1.42,2.94,1.42,4.61,0,2.36-.85,4.35-2.78,5.75-2.19,1.59-5.21,1.98-7.84,1.98h-13.13v-27.94h12.37c2.5,0,5.25.41,7.31,1.94,1.82,1.35,2.66,3.22,2.66,5.48,0,1.38-.29,2.72-1.03,3.9-.52.83-1.19,1.52-1.99,2.06Zm-53.92,14.88c-2.64,0-5.17-.57-7.48-1.85-2.21-1.23-3.97-2.94-5.24-5.13-1.31-2.25-1.9-4.7-1.9-7.3s.6-5.05,1.9-7.3c1.27-2.19,3.03-3.9,5.24-5.13,2.31-1.28,4.84-1.85,7.48-1.85s5.14.57,7.44,1.85c2.21,1.23,3.96,2.93,5.22,5.11,1.3,2.25,1.88,4.72,1.88,7.32s-.58,5.06-1.88,7.32c-1.26,2.18-3.02,3.89-5.22,5.11-2.3,1.28-4.81,1.85-7.44,1.85Zm-42.9-8.63c-.49.03-.99.06-1.48.06h-6.2v8.26h-4.61v-27.94h10.81c3.01,0,6.07.62,8.42,2.62,2.21,1.87,3.12,4.38,3.12,7.24,0,2-.45,3.92-1.6,5.58-1.02,1.48-2.42,2.51-4.06,3.18l6.47,9.32h-5.13l-5.75-8.32Z"/>
    <path class="cls-1" d="m425.99,41.49v16.22h16.59c2.95,0,6.71-.34,9.24-2.02,2.11-1.4,2.86-3.55,2.86-6.05,0-6.98-6.49-8.15-12.1-8.15h-16.59Zm0-23.62v15.52h14.69c2.81,0,6.13-.39,8.5-2.05,1.97-1.37,2.77-3.33,2.77-5.71s-.8-4.34-2.77-5.71c-2.37-1.66-5.7-2.05-8.5-2.05h-14.69Zm-54.39,39.83c3.57,0,6.98-.79,10.09-2.59,2.98-1.73,5.33-4.11,7.04-7.14,1.78-3.14,2.58-6.57,2.58-10.19s-.8-7.05-2.58-10.19c-1.72-3.03-4.06-5.41-7.04-7.13-3.11-1.8-6.52-2.59-10.09-2.59s-7.02.8-10.17,2.59c-3.01,1.72-5.39,4.09-7.11,7.13-1.78,3.14-2.58,6.57-2.58,10.19s.8,7.05,2.58,10.19c1.73,3.04,4.1,5.41,7.11,7.13,3.14,1.79,6.57,2.59,10.17,2.59Zm-114.98-13.47l-10.11-23.38-10.1,23.38h20.21ZM480.2,9.77h9.4v56.04h-9.4V9.77Zm-24.74,26.79c2.29.95,4.28,2.38,5.85,4.41,2.07,2.68,2.85,5.91,2.85,9.28,0,4.79-1.73,8.78-5.58,11.59-4.39,3.2-10.44,3.97-15.69,3.97h-26.29V9.77h24.77c4.99,0,10.51.81,14.63,3.89,3.63,2.71,5.35,6.47,5.35,11.04,0,2.79-.6,5.48-2.08,7.85-1.01,1.62-2.29,2.96-3.81,4.01Zm-83.86,29.86c-5.27,0-10.32-1.13-14.95-3.71-4.41-2.46-7.93-5.88-10.49-10.29-2.61-4.49-3.81-9.42-3.81-14.64s1.2-10.14,3.81-14.64c2.56-4.41,6.08-7.83,10.49-10.29,4.63-2.58,9.69-3.71,14.95-3.71s10.27,1.14,14.88,3.71c4.4,2.45,7.91,5.85,10.45,10.25,2.6,4.5,3.77,9.46,3.77,14.67s-1.17,10.17-3.77,14.67c-2.54,4.4-6.06,7.8-10.45,10.25-4.61,2.57-9.63,3.71-14.88,3.71Zm-60.11,0c-5.23,0-10.25-1.14-14.84-3.71-4.38-2.45-7.88-5.86-10.41-10.25-2.6-4.5-3.77-9.46-3.77-14.67s1.17-10.17,3.77-14.67c2.54-4.4,6.06-7.8,10.45-10.25,4.61-2.57,9.63-3.71,14.88-3.71,4.03,0,8,.65,11.74,2.2,3.55,1.46,6.61,3.64,9.15,6.55l.57.65-6.21,6.13-.62-.67c-3.9-4.17-8.69-6.14-14.33-6.14-3.63,0-7.1.79-10.28,2.6-3.03,1.71-5.42,4.08-7.15,7.13-1.78,3.14-2.58,6.57-2.58,10.19s.8,7.05,2.58,10.19c1.73,3.05,4.12,5.42,7.15,7.13,3.18,1.8,6.65,2.6,10.28,2.6,5.66,0,10.42-2.05,14.33-6.22l.62-.67,6.21,6.13-.57.65c-2.55,2.92-5.64,5.11-9.19,6.59-3.75,1.56-7.74,2.24-11.78,2.24Zm-51.42-14.17h-27.11l-5.85,13.55h-9.81l24.91-56.04h8.68l24.99,56.04h-9.96l-5.85-13.55Zm-62.17-33.92h-13.7v-5.4c.26-2.15,1.32-3.17,3.54-3.17h19.48v37.7c0,5.01-.96,10.38-4.47,14.14-3.42,3.68-8.26,4.82-13.08,4.82-2.07,0-4.09-.28-6.03-.86v-9.33c1.74,1.09,3.73,1.7,6.03,1.7s4.56-.59,6.12-2.46c1.7-2.04,2.11-5.03,2.11-7.62v-29.52Z"/>
  </g>
</svg>